<?xml version="1.0" encoding="UTF-8" standalone="no"?>
<svg
   xmlns:dc="http://purl.org/dc/elements/1.1/"
   xmlns:cc="http://creativecommons.org/ns#"
   xmlns:rdf="http://www.w3.org/1999/02/22-rdf-syntax-ns#"
   xmlns:svg="http://www.w3.org/2000/svg"
   xmlns="http://www.w3.org/2000/svg"
   xmlns:sodipodi="http://sodipodi.sourceforge.net/DTD/sodipodi-0.dtd"
   xmlns:inkscape="http://www.inkscape.org/namespaces/inkscape"
   viewBox="0 0 691.33002 568.11902"
   height="568.11902"
   width="691.33002"
   id="svg1010"
   version="1.1"
   sodipodi:docname="slogo1.svg"
   inkscape:version="0.92.4 5da689c313, 2019-01-14">
     <style>
.yo{
animation: fadein 5s forwards;
opacity: 0;   
}
        
@keyframes fadein {
to {
opacity: 1;
}
</style>
  <sodipodi:namedview
     pagecolor="#ffffff"
     bordercolor="#666666"
     borderopacity="1"
     objecttolerance="10"
     gridtolerance="10"
     guidetolerance="10"
     inkscape:pageopacity="0"
     inkscape:pageshadow="2"
     inkscape:window-width="1598"
     inkscape:window-height="879"
     id="namedview1078"
     showgrid="false"
     inkscape:zoom="0.31551487"
     inkscape:cx="-551.28161"
     inkscape:cy="284.0595"
     inkscape:window-x="0"
     inkscape:window-y="19"
     inkscape:window-maximized="0"
     inkscape:current-layer="svg1010" />
  <metadata
     id="metadata1016">
    <rdf:RDF>
      <cc:Work
         rdf:about="">
        <dc:format>image/svg+xml</dc:format>
        <dc:type
           rdf:resource="http://purl.org/dc/dcmitype/StillImage" />
        <dc:title />
      </cc:Work>
    </rdf:RDF>
  </metadata>
  <defs
     id="defs1014" />
  <g class="yo"
     id="g1437">
    <circle
       style="fill:#ffffff;fill-opacity:1;stroke:none;stroke-width:68.1190033;stroke-miterlimit:4;stroke-dasharray:none;stroke-opacity:1"
       id="path92-3"
       cx="348.63651"
       cy="282.87097"
       r="250" />
    <circle
       style="fill:none;fill-opacity:1;stroke:#000000;stroke-width:68.1190033;stroke-miterlimit:4;stroke-dasharray:none;stroke-opacity:1"
       id="path92"
       cx="347.91617"
       cy="284.05951"
       r="250" />
    <path
       inkscape:connector-curvature="0"
       id="path1028"
       d="m 16.239317,324.63338 c -2.04468,-0.76368 -5.28467,-2.65165 -7.1999902,-4.19551 -3.81501,-3.07511 -8.55272001,-11.53628 -8.97468001,-16.02809 -0.25203,-2.68269 0.0244,-2.92907 4.71672001,-4.20402 6.2384102,-1.69503 7.7021302,-1.13994 8.5223102,3.23189 2.60347,13.87774 22.66526,14.08368 26.38467,0.27084 1.32541,-4.9222 -0.1422,-9.46691 -4.14473,-12.83481 -1.65281,-1.39075 -7.84439,-4.84617 -13.75904,-7.67869 C 6.4886368,275.86978 2.1470468,269.89168 3.6113668,258.17158 5.4924268,243.11614 25.029197,234.09911 39.636917,241.5443 c 4.5834,2.33603 10.82068,8.94111 10.4109,11.02478 -0.182,0.92536 -2.2749,2.76665 -4.65089,4.09176 l -4.32001,2.40929 -3.44742,-3.44873 c -1.89607,-1.8968 -4.59891,-3.73774 -6.0063,-4.09097 -6.9916,-1.75479 -15.02627,3.26838 -15.02627,9.3942 0,4.6651 2.67251,7.00279 14.11323,12.3451 18.06968,8.43773 23.10494,14.93353 22.08008,28.48463 -0.77081,10.19187 -5.4656,17.35323 -14.40781,21.97742 -4.13804,2.13987 -17.38373,2.67919 -22.14311,0.9016 z m 196.654003,0.19028 c -0.26249,-0.68429 -0.36456,-20.25216 -0.22682,-43.48417 l 0.25043,-42.24 10.56,0.13368 c 8.98717,0.11376 11.35951,0.48909 15.92791,2.51991 13.04504,5.799 19.52693,18.78316 17.28387,34.62206 -1.05341,7.43838 -3.16217,12.20705 -7.1707,16.21558 -3.46958,3.46958 -13.45579,8.42693 -16.9776,8.42802 -5.00026,0.002 -5.64028,1.45391 -5.92305,13.44076 l -0.26043,11.04 -6.49318,0.28416 c -4.6455,0.2033 -6.62899,-0.0699 -6.97043,-0.96 z m 24.89811,-39.8929 c 7.99691,-5.60446 10.16373,-16.81359 4.74157,-24.5284 -3.608,-5.13357 -8.40801,-8.34287 -12.47803,-8.34287 h -3.21804 v 17.6 c 0,9.68001 0.321,17.921 0.71334,18.31334 1.22137,1.22137 6.31788,-0.29252 10.24116,-3.04207 z m 322.1655,39.73908 c -14.42979,-4.22917 -26.49691,-17.29695 -29.63975,-32.0976 -2.25497,-10.6194 -0.57236,-22.36797 4.42727,-30.91275 3.38931,-5.7926 11.10214,-13.83182 15.97134,-16.64721 11.79613,-6.82057 27.50617,-7.81924 39.80109,-2.5301 l 4.96005,2.13375 v 7.08178 c 0,8.0403 -0.47637,8.41223 -5.98232,4.67084 -7.91419,-5.37782 -20.17026,-6.41277 -29.1189,-2.4589 -5.94145,2.62517 -13.34285,10.5796 -15.6959,16.86869 -2.68702,7.18172 -2.68128,16.83593 0.0143,24.04051 2.67672,7.15417 10.18241,14.62354 17.28564,17.20201 10.18874,3.6985 20.43583,2.19121 29.76555,-4.37836 1.3796,-0.97146 2.7836,-1.49105 3.12,-1.15464 0.3364,0.3364 0.61163,3.58741 0.61163,7.22447 v 6.61282 l -5.52,2.45903 c -4.51748,2.01243 -7.35068,2.52194 -15.6,2.80541 -6.50888,0.22367 -11.61048,-0.10218 -14.4,-0.91975 z m 74.4,0.0135 c -6.55113,-2.16249 -11.53726,-5.14238 -17.07834,-10.20661 -9.54258,-8.72137 -13.4697,-18.16659 -13.34618,-32.09912 0.0809,-9.124 1.1251,-13.5283 4.91146,-20.71577 3.39884,-6.45183 12.7745,-15.1116 20.13873,-18.60099 6.08652,-2.88398 6.82346,-3.0014 18.83705,-3.0014 12.18029,0 12.66702,0.0809 18.87296,3.13731 8.69987,4.28464 16.4971,12.23143 20.7383,21.13606 2.77622,5.82882 3.41012,8.38659 3.80672,15.36 1.08719,19.11592 -7.43873,33.75621 -24.59663,42.2361 -6.8695,3.39509 -7.73752,3.57984 -17.83253,3.7954 -6.80171,0.14523 -11.99021,-0.22851 -14.45154,-1.04098 z m 23.56674,-12.30301 c 7.51875,-2.18271 15.76101,-10.43548 18.72708,-18.75095 0.71605,-2.00746 1.32053,-7.10592 1.34329,-11.32993 0.0352,-6.54061 -0.36888,-8.53453 -2.72398,-13.44 -5.52056,-11.49879 -14.48629,-17.10742 -27.47313,-17.18613 -6.31261,-0.0383 -8.63485,0.39702 -13.04302,2.44482 -6.57034,3.05221 -11.57673,7.91806 -14.95318,14.53341 -2.2023,4.31484 -2.55821,6.20363 -2.57175,13.6479 -0.023,12.68485 3.46926,19.52688 13.29785,26.05269 8.44141,5.60478 17.41903,6.92477 27.39684,4.02819 z M 73.466477,324.22169 c -0.94965,-0.60285 -1.15649,-9.64876 -0.96,-41.98531 l 0.25044,-41.21689 h 6.24 6.24 l 0.25052,40.68896 c 0.18003,29.24049 -0.0556,41.05785 -0.83755,42 -1.18358,1.42614 -9.16813,1.79257 -11.18341,0.51324 z m 34.563403,-0.31324 c -1.69354,-1.69355 -1.73283,-81.48507 -0.041,-83.17696 1.34042,-1.34041 11.16431,-1.52995 13.18009,-0.25428 0.75466,0.47757 6.80415,10.29333 13.44332,21.81279 6.85569,11.89512 12.74808,21.07483 13.63778,21.24617 1.07773,0.20755 2.69678,-1.73568 5.18862,-6.22749 8.5007,-15.32351 20.95903,-36.34477 21.93812,-37.01675 0.58304,-0.40016 3.86807,-0.61616 7.30007,-0.48 l 6.24,0.24756 v 42.24 42.24001 l -5.11793,0.29286 c -2.94822,0.16872 -5.69537,-0.18635 -6.48,-0.83754 -1.11872,-0.92845 -1.36207,-6.0977 -1.36207,-28.93287 0,-20.11009 -0.29777,-27.70319 -1.07624,-27.44371 -0.59192,0.19731 -5.07756,7.25331 -9.96808,15.68 l -8.89185,15.32126 -7.56987,0.27524 -7.56986,0.27523 -5.15838,-8.91523 c -2.83711,-4.90339 -7.08859,-12.30209 -9.44774,-16.44156 -2.44904,-4.29721 -4.64953,-7.16614 -5.12884,-6.68682 -0.46172,0.46171 -0.95416,13.56855 -1.09431,29.1263 l -0.25483,28.28684 -5.28705,0.28095 c -3.28381,0.17451 -5.73904,-0.17104 -6.48,-0.912 z m 164.11905,-0.041 c -0.85914,-0.85915 -1.152,-11.32321 -1.152,-41.16246 0,-33.3763 0.22585,-40.19789 1.36207,-41.14087 0.78463,-0.65119 3.53178,-1.00626 6.48,-0.83754 l 5.11793,0.29286 0.48,35.52 0.48,35.52001 10.98156,0.27313 c 6.07752,0.15117 11.54355,0.73955 12.24,1.31755 1.86601,1.54865 1.66105,10.0494 -0.26008,10.78661 -2.99305,1.14854 -34.51388,0.64631 -35.72948,-0.56929 z m 73.248,-0.14412 c -11.7419,-3.87593 -22.70266,-13.52579 -26.33331,-23.18388 -6.85008,-18.22221 -3.88423,-34.86639 8.46104,-47.48291 16.89387,-17.26506 43.03935,-18.01905 60.25457,-1.73761 9.79475,9.26346 14.13864,19.31461 14.01146,32.42052 -0.15703,16.18218 -10.0545,30.83462 -25.74084,38.1073 -4.95196,2.2959 -7.06735,2.67228 -16.25292,2.89178 -6.8222,0.16304 -11.9192,-0.1963 -14.4,-1.0152 z m 27.07971,-12.26783 c 6.51696,-3.10193 11.43653,-8.10324 14.91571,-15.16351 1.812,-3.67706 2.1629,-5.95626 2.15425,-13.99255 -0.01,-8.51593 -0.29758,-10.14638 -2.55409,-14.43854 -3.12341,-5.94112 -10.0011,-12.43026 -15.97556,-15.07306 -5.34008,-2.36216 -15.78682,-2.7876 -22.26002,-0.90651 -9.6961,2.81764 -18.76885,12.72758 -21.14597,23.09717 -4.07691,17.78453 7.01953,35.20944 24.85568,39.03126 7.27426,1.55869 12.86952,0.84446 20.01,-2.55426 z m -18.91971,-17.636 v -5.38034 l 5.04,0.29017 5.04,0.29017 v 4.8 4.8 l -5.04,0.29016 -5.04,0.29017 z m 0,-21.06984 v -5.33017 h 5.33017 5.33017 l -0.29017,5.04 -0.29017,5.04 -5.04,0.29017 -5.04,0.29017 z m 62.64,51.63405 c -0.93407,-0.37691 -1.2,-9.69791 -1.2,-42.0615 0,-37.02747 0.16618,-41.64107 1.51852,-42.16001 2.69824,-1.03541 11.51048,-0.61826 13.04048,0.61729 0.81729,0.66 4.56352,6.6 8.32495,13.2 18.6094,32.65297 25.69945,44.53592 26.78186,44.88649 0.91974,0.29788 1.24285,-6.1488 1.44,-28.73121 l 0.25419,-29.11528 h 5.76 5.76 l 0.25044,41.21689 c 0.19649,32.33655 -0.0104,41.38246 -0.96,41.98531 -1.91512,1.21575 -11.72417,0.92188 -13.42432,-0.40219 -0.84746,-0.66 -8.32322,-13.08 -16.61278,-27.6 -8.28956,-14.52001 -15.88675,-27.25201 -16.88264,-28.29334 -1.77613,-1.85718 -1.8107,-1.35229 -1.8107,26.448 0,20.76326 -0.30803,28.64936 -1.152,29.49334 -1.12565,1.12564 -8.70337,1.47842 -11.088,0.51621 z m 83.95567,-4.76855 c -0.37162,-0.37162 -0.67567,-4.49166 -0.67567,-9.15567 v -8.47999 h 8.67603 8.67602 l -0.27602,8.88 -0.27603,8.88 -7.72433,0.27566 c -4.2484,0.15161 -8.0284,-0.0284 -8.4,-0.4 z"
       style="fill:#ea1e56;fill-opacity:1;stroke:none;stroke-width:0.95999998" />
    <rect
       style="fill:none;fill-opacity:1;stroke:#000000;stroke-width:68.1190033;stroke-miterlimit:4;stroke-dasharray:none;stroke-opacity:1"
       id="rect899"
       width="25"
       height="25"
       x="334.57449"
       y="167.82523" />
    <rect
       style="fill:none;fill-opacity:1;stroke:#000000;stroke-width:68.1190033;stroke-miterlimit:4;stroke-dasharray:none;stroke-opacity:1"
       id="rect899-3"
       width="25"
       height="25"
       x="336.81088"
       y="384.63623" />
  </g>
</svg>
